<mxfile host="app.diagrams.net" agent="Mozilla/5.0 (Macintosh; Intel Mac OS X 10_15_7) AppleWebKit/605.1.15 (KHTML, like Gecko) Version/18.3 Safari/605.1.15" version="26.0.13">
  <diagram name="Page-1" id="BQ-xQXfEWZ96B3WqzvJV">
    <mxGraphModel dx="499" dy="655" grid="1" gridSize="10" guides="1" tooltips="1" connect="1" arrows="1" fold="1" page="1" pageScale="1" pageWidth="850" pageHeight="1100" math="0" shadow="0">
      <root>
        <mxCell id="0" />
        <mxCell id="1" parent="0" />
        <mxCell id="1jdU3O2AD0-BS01FVecg-3" value="" style="edgeStyle=orthogonalEdgeStyle;rounded=0;orthogonalLoop=1;jettySize=auto;html=1;" edge="1" parent="1" source="1jdU3O2AD0-BS01FVecg-1" target="1jdU3O2AD0-BS01FVecg-2">
          <mxGeometry relative="1" as="geometry" />
        </mxCell>
        <mxCell id="1jdU3O2AD0-BS01FVecg-1" value="main" style="ellipse;whiteSpace=wrap;html=1;" vertex="1" parent="1">
          <mxGeometry x="365" y="40" width="120" height="80" as="geometry" />
        </mxCell>
        <mxCell id="1jdU3O2AD0-BS01FVecg-27" style="edgeStyle=orthogonalEdgeStyle;rounded=0;orthogonalLoop=1;jettySize=auto;html=1;entryX=0.5;entryY=0;entryDx=0;entryDy=0;" edge="1" parent="1" source="1jdU3O2AD0-BS01FVecg-2" target="1jdU3O2AD0-BS01FVecg-7">
          <mxGeometry relative="1" as="geometry" />
        </mxCell>
        <mxCell id="1jdU3O2AD0-BS01FVecg-2" value="srand(time(NULL))" style="whiteSpace=wrap;html=1;" vertex="1" parent="1">
          <mxGeometry x="365" y="150" width="120" height="60" as="geometry" />
        </mxCell>
        <mxCell id="1jdU3O2AD0-BS01FVecg-12" style="edgeStyle=orthogonalEdgeStyle;rounded=0;orthogonalLoop=1;jettySize=auto;html=1;entryX=0.5;entryY=0;entryDx=0;entryDy=0;" edge="1" parent="1" source="1jdU3O2AD0-BS01FVecg-7" target="1jdU3O2AD0-BS01FVecg-8">
          <mxGeometry relative="1" as="geometry" />
        </mxCell>
        <mxCell id="1jdU3O2AD0-BS01FVecg-7" value="" style="ellipse;whiteSpace=wrap;html=1;aspect=fixed;" vertex="1" parent="1">
          <mxGeometry x="415" y="240" width="20" height="20" as="geometry" />
        </mxCell>
        <mxCell id="1jdU3O2AD0-BS01FVecg-13" style="edgeStyle=orthogonalEdgeStyle;rounded=0;orthogonalLoop=1;jettySize=auto;html=1;exitX=0.5;exitY=1;exitDx=0;exitDy=0;" edge="1" parent="1" source="1jdU3O2AD0-BS01FVecg-8" target="1jdU3O2AD0-BS01FVecg-9">
          <mxGeometry relative="1" as="geometry" />
        </mxCell>
        <mxCell id="1jdU3O2AD0-BS01FVecg-8" value="limpiar_pantalla()" style="rounded=1;whiteSpace=wrap;html=1;" vertex="1" parent="1">
          <mxGeometry x="365" y="280" width="120" height="60" as="geometry" />
        </mxCell>
        <mxCell id="1jdU3O2AD0-BS01FVecg-21" style="edgeStyle=orthogonalEdgeStyle;rounded=0;orthogonalLoop=1;jettySize=auto;html=1;" edge="1" parent="1" source="1jdU3O2AD0-BS01FVecg-9" target="1jdU3O2AD0-BS01FVecg-14">
          <mxGeometry relative="1" as="geometry" />
        </mxCell>
        <mxCell id="1jdU3O2AD0-BS01FVecg-9" value="&lt;div&gt;Introduzca una de las opciones&lt;/div&gt;&lt;div&gt;1.- Crear lista&lt;/div&gt;&lt;div&gt;2.- Imprimir lista&lt;/div&gt;&lt;div&gt;3.- Eliminar nodos dado un valor&lt;/div&gt;&lt;div&gt;4.- Salir&lt;/div&gt;" style="shape=parallelogram;perimeter=parallelogramPerimeter;whiteSpace=wrap;html=1;fixedSize=1;" vertex="1" parent="1">
          <mxGeometry x="318" y="370" width="215" height="90" as="geometry" />
        </mxCell>
        <mxCell id="1jdU3O2AD0-BS01FVecg-22" style="edgeStyle=orthogonalEdgeStyle;rounded=0;orthogonalLoop=1;jettySize=auto;html=1;" edge="1" parent="1" source="1jdU3O2AD0-BS01FVecg-14" target="1jdU3O2AD0-BS01FVecg-19">
          <mxGeometry relative="1" as="geometry" />
        </mxCell>
        <mxCell id="1jdU3O2AD0-BS01FVecg-14" value="op1" style="shape=parallelogram;perimeter=parallelogramPerimeter;whiteSpace=wrap;html=1;fixedSize=1;" vertex="1" parent="1">
          <mxGeometry x="365.5" y="490" width="120" height="60" as="geometry" />
        </mxCell>
        <mxCell id="1jdU3O2AD0-BS01FVecg-25" style="edgeStyle=orthogonalEdgeStyle;rounded=0;orthogonalLoop=1;jettySize=auto;html=1;" edge="1" parent="1" source="1jdU3O2AD0-BS01FVecg-17">
          <mxGeometry relative="1" as="geometry">
            <mxPoint x="425.4545454545455" y="760.045454545455" as="targetPoint" />
          </mxGeometry>
        </mxCell>
        <mxCell id="1jdU3O2AD0-BS01FVecg-17" value="Break" style="rounded=1;whiteSpace=wrap;html=1;" vertex="1" parent="1">
          <mxGeometry x="365" y="670" width="120" height="60" as="geometry" />
        </mxCell>
        <mxCell id="1jdU3O2AD0-BS01FVecg-20" style="edgeStyle=orthogonalEdgeStyle;rounded=0;orthogonalLoop=1;jettySize=auto;html=1;entryX=0;entryY=0.5;entryDx=0;entryDy=0;" edge="1" parent="1" source="1jdU3O2AD0-BS01FVecg-19" target="1jdU3O2AD0-BS01FVecg-7">
          <mxGeometry relative="1" as="geometry">
            <Array as="points">
              <mxPoint x="280" y="610" />
              <mxPoint x="280" y="250" />
            </Array>
          </mxGeometry>
        </mxCell>
        <mxCell id="1jdU3O2AD0-BS01FVecg-23" style="edgeStyle=orthogonalEdgeStyle;rounded=0;orthogonalLoop=1;jettySize=auto;html=1;" edge="1" parent="1" source="1jdU3O2AD0-BS01FVecg-19" target="1jdU3O2AD0-BS01FVecg-17">
          <mxGeometry relative="1" as="geometry" />
        </mxCell>
        <mxCell id="1jdU3O2AD0-BS01FVecg-19" value="Continue" style="rounded=1;whiteSpace=wrap;html=1;" vertex="1" parent="1">
          <mxGeometry x="365.5" y="580" width="120" height="60" as="geometry" />
        </mxCell>
        <mxCell id="1jdU3O2AD0-BS01FVecg-68" style="edgeStyle=orthogonalEdgeStyle;rounded=0;orthogonalLoop=1;jettySize=auto;html=1;entryX=0.5;entryY=0;entryDx=0;entryDy=0;" edge="1" parent="1" source="1jdU3O2AD0-BS01FVecg-24" target="1jdU3O2AD0-BS01FVecg-26">
          <mxGeometry relative="1" as="geometry" />
        </mxCell>
        <mxCell id="1jdU3O2AD0-BS01FVecg-69" style="edgeStyle=orthogonalEdgeStyle;rounded=0;orthogonalLoop=1;jettySize=auto;html=1;exitX=0;exitY=1;exitDx=0;exitDy=0;entryX=0.5;entryY=0;entryDx=0;entryDy=0;" edge="1" parent="1" source="1jdU3O2AD0-BS01FVecg-24" target="1jdU3O2AD0-BS01FVecg-28">
          <mxGeometry relative="1" as="geometry">
            <Array as="points">
              <mxPoint x="405" y="830" />
              <mxPoint x="326" y="830" />
            </Array>
          </mxGeometry>
        </mxCell>
        <mxCell id="1jdU3O2AD0-BS01FVecg-70" style="edgeStyle=orthogonalEdgeStyle;rounded=0;orthogonalLoop=1;jettySize=auto;html=1;exitX=1;exitY=1;exitDx=0;exitDy=0;entryX=0.5;entryY=0;entryDx=0;entryDy=0;" edge="1" parent="1" source="1jdU3O2AD0-BS01FVecg-24" target="1jdU3O2AD0-BS01FVecg-29">
          <mxGeometry relative="1" as="geometry">
            <Array as="points">
              <mxPoint x="445" y="830" />
              <mxPoint x="540" y="830" />
            </Array>
          </mxGeometry>
        </mxCell>
        <mxCell id="1jdU3O2AD0-BS01FVecg-71" style="edgeStyle=orthogonalEdgeStyle;rounded=0;orthogonalLoop=1;jettySize=auto;html=1;" edge="1" parent="1" source="1jdU3O2AD0-BS01FVecg-24" target="1jdU3O2AD0-BS01FVecg-30">
          <mxGeometry relative="1" as="geometry" />
        </mxCell>
        <mxCell id="1jdU3O2AD0-BS01FVecg-24" value="op1" style="rhombus;whiteSpace=wrap;html=1;" vertex="1" parent="1">
          <mxGeometry x="385.5" y="760" width="80" height="80" as="geometry" />
        </mxCell>
        <mxCell id="1jdU3O2AD0-BS01FVecg-32" value="" style="edgeStyle=orthogonalEdgeStyle;rounded=0;orthogonalLoop=1;jettySize=auto;html=1;" edge="1" parent="1" source="1jdU3O2AD0-BS01FVecg-26" target="1jdU3O2AD0-BS01FVecg-31">
          <mxGeometry relative="1" as="geometry" />
        </mxCell>
        <mxCell id="1jdU3O2AD0-BS01FVecg-26" value="1" style="rounded=1;whiteSpace=wrap;html=1;" vertex="1" parent="1">
          <mxGeometry x="80" y="870" width="120" height="60" as="geometry" />
        </mxCell>
        <mxCell id="1jdU3O2AD0-BS01FVecg-34" value="" style="edgeStyle=orthogonalEdgeStyle;rounded=0;orthogonalLoop=1;jettySize=auto;html=1;" edge="1" parent="1" source="1jdU3O2AD0-BS01FVecg-28" target="1jdU3O2AD0-BS01FVecg-33">
          <mxGeometry relative="1" as="geometry" />
        </mxCell>
        <mxCell id="1jdU3O2AD0-BS01FVecg-28" value="2" style="rounded=1;whiteSpace=wrap;html=1;" vertex="1" parent="1">
          <mxGeometry x="266" y="870" width="120" height="60" as="geometry" />
        </mxCell>
        <mxCell id="1jdU3O2AD0-BS01FVecg-36" value="" style="edgeStyle=orthogonalEdgeStyle;rounded=0;orthogonalLoop=1;jettySize=auto;html=1;" edge="1" parent="1" source="1jdU3O2AD0-BS01FVecg-29" target="1jdU3O2AD0-BS01FVecg-35">
          <mxGeometry relative="1" as="geometry" />
        </mxCell>
        <mxCell id="1jdU3O2AD0-BS01FVecg-29" value="3" style="rounded=1;whiteSpace=wrap;html=1;" vertex="1" parent="1">
          <mxGeometry x="480" y="870" width="120" height="60" as="geometry" />
        </mxCell>
        <mxCell id="1jdU3O2AD0-BS01FVecg-38" value="" style="edgeStyle=orthogonalEdgeStyle;rounded=0;orthogonalLoop=1;jettySize=auto;html=1;" edge="1" parent="1" source="1jdU3O2AD0-BS01FVecg-30" target="1jdU3O2AD0-BS01FVecg-37">
          <mxGeometry relative="1" as="geometry" />
        </mxCell>
        <mxCell id="1jdU3O2AD0-BS01FVecg-30" value="4" style="rounded=1;whiteSpace=wrap;html=1;" vertex="1" parent="1">
          <mxGeometry x="680" y="870" width="120" height="60" as="geometry" />
        </mxCell>
        <mxCell id="1jdU3O2AD0-BS01FVecg-31" value="1" style="ellipse;whiteSpace=wrap;html=1;rounded=1;" vertex="1" parent="1">
          <mxGeometry x="100" y="1000" width="80" height="80" as="geometry" />
        </mxCell>
        <mxCell id="1jdU3O2AD0-BS01FVecg-33" value="2" style="ellipse;whiteSpace=wrap;html=1;rounded=1;" vertex="1" parent="1">
          <mxGeometry x="286" y="1000" width="80" height="80" as="geometry" />
        </mxCell>
        <mxCell id="1jdU3O2AD0-BS01FVecg-35" value="3" style="ellipse;whiteSpace=wrap;html=1;rounded=1;" vertex="1" parent="1">
          <mxGeometry x="500" y="1000" width="80" height="80" as="geometry" />
        </mxCell>
        <mxCell id="1jdU3O2AD0-BS01FVecg-37" value="4" style="ellipse;whiteSpace=wrap;html=1;rounded=1;" vertex="1" parent="1">
          <mxGeometry x="700" y="1000" width="80" height="80" as="geometry" />
        </mxCell>
        <mxCell id="1jdU3O2AD0-BS01FVecg-41" value="" style="edgeStyle=orthogonalEdgeStyle;rounded=0;orthogonalLoop=1;jettySize=auto;html=1;" edge="1" parent="1" source="1jdU3O2AD0-BS01FVecg-39" target="1jdU3O2AD0-BS01FVecg-40">
          <mxGeometry relative="1" as="geometry" />
        </mxCell>
        <mxCell id="1jdU3O2AD0-BS01FVecg-39" value="1" style="ellipse;whiteSpace=wrap;html=1;aspect=fixed;" vertex="1" parent="1">
          <mxGeometry x="385" y="1150" width="80" height="80" as="geometry" />
        </mxCell>
        <mxCell id="1jdU3O2AD0-BS01FVecg-75" style="edgeStyle=orthogonalEdgeStyle;rounded=0;orthogonalLoop=1;jettySize=auto;html=1;exitX=0.5;exitY=1;exitDx=0;exitDy=0;" edge="1" parent="1" source="1jdU3O2AD0-BS01FVecg-40" target="1jdU3O2AD0-BS01FVecg-42">
          <mxGeometry relative="1" as="geometry" />
        </mxCell>
        <mxCell id="1jdU3O2AD0-BS01FVecg-40" value="limpiar_pantalla()" style="rounded=1;whiteSpace=wrap;html=1;" vertex="1" parent="1">
          <mxGeometry x="365" y="1260" width="120" height="60" as="geometry" />
        </mxCell>
        <mxCell id="1jdU3O2AD0-BS01FVecg-54" style="edgeStyle=orthogonalEdgeStyle;rounded=0;orthogonalLoop=1;jettySize=auto;html=1;" edge="1" parent="1" source="1jdU3O2AD0-BS01FVecg-42" target="1jdU3O2AD0-BS01FVecg-53">
          <mxGeometry relative="1" as="geometry" />
        </mxCell>
        <mxCell id="1jdU3O2AD0-BS01FVecg-42" value="Introduzca un numero para el tamaño de la lista (1 para regresar al menu)\n&quot;);" style="shape=parallelogram;perimeter=parallelogramPerimeter;whiteSpace=wrap;html=1;fixedSize=1;" vertex="1" parent="1">
          <mxGeometry x="218.5" y="1350" width="414" height="70" as="geometry" />
        </mxCell>
        <mxCell id="1jdU3O2AD0-BS01FVecg-56" style="edgeStyle=orthogonalEdgeStyle;rounded=0;orthogonalLoop=1;jettySize=auto;html=1;" edge="1" parent="1" source="1jdU3O2AD0-BS01FVecg-43">
          <mxGeometry relative="1" as="geometry">
            <mxPoint x="425" y="1660" as="targetPoint" />
          </mxGeometry>
        </mxCell>
        <mxCell id="1jdU3O2AD0-BS01FVecg-43" value="lista = lista_s_crear()" style="whiteSpace=wrap;html=1;" vertex="1" parent="1">
          <mxGeometry x="365" y="1570" width="120" height="60" as="geometry" />
        </mxCell>
        <mxCell id="1jdU3O2AD0-BS01FVecg-48" value="" style="group" vertex="1" connectable="0" parent="1">
          <mxGeometry x="363" y="1660" width="125" height="60" as="geometry" />
        </mxCell>
        <mxCell id="1jdU3O2AD0-BS01FVecg-45" value="" style="rounded=1;whiteSpace=wrap;html=1;" vertex="1" parent="1jdU3O2AD0-BS01FVecg-48">
          <mxGeometry width="120" height="60" as="geometry" />
        </mxCell>
        <mxCell id="1jdU3O2AD0-BS01FVecg-46" value="" style="endArrow=none;html=1;rounded=0;entryX=0.5;entryY=0;entryDx=0;entryDy=0;exitX=0;exitY=1;exitDx=0;exitDy=0;" edge="1" parent="1jdU3O2AD0-BS01FVecg-48" source="1jdU3O2AD0-BS01FVecg-45" target="1jdU3O2AD0-BS01FVecg-45">
          <mxGeometry width="50" height="50" relative="1" as="geometry">
            <mxPoint x="1" y="60" as="sourcePoint" />
            <mxPoint x="51" y="10" as="targetPoint" />
          </mxGeometry>
        </mxCell>
        <mxCell id="1jdU3O2AD0-BS01FVecg-47" value="" style="endArrow=none;html=1;rounded=0;entryX=0.5;entryY=0;entryDx=0;entryDy=0;exitX=1;exitY=1;exitDx=0;exitDy=0;" edge="1" parent="1jdU3O2AD0-BS01FVecg-48" source="1jdU3O2AD0-BS01FVecg-45" target="1jdU3O2AD0-BS01FVecg-45">
          <mxGeometry width="50" height="50" relative="1" as="geometry">
            <mxPoint x="11" y="70" as="sourcePoint" />
            <mxPoint x="70" y="10" as="targetPoint" />
          </mxGeometry>
        </mxCell>
        <mxCell id="1jdU3O2AD0-BS01FVecg-49" value="i = 0" style="text;html=1;align=center;verticalAlign=middle;whiteSpace=wrap;rounded=0;" vertex="1" parent="1jdU3O2AD0-BS01FVecg-48">
          <mxGeometry x="-5" width="60" height="30" as="geometry" />
        </mxCell>
        <mxCell id="1jdU3O2AD0-BS01FVecg-50" value="i &amp;lt; tamano" style="text;html=1;align=center;verticalAlign=middle;whiteSpace=wrap;rounded=0;" vertex="1" parent="1jdU3O2AD0-BS01FVecg-48">
          <mxGeometry x="30" y="30" width="60" height="30" as="geometry" />
        </mxCell>
        <mxCell id="1jdU3O2AD0-BS01FVecg-51" value="i++" style="text;html=1;align=center;verticalAlign=middle;whiteSpace=wrap;rounded=0;" vertex="1" parent="1jdU3O2AD0-BS01FVecg-48">
          <mxGeometry x="65" width="60" height="30" as="geometry" />
        </mxCell>
        <mxCell id="1jdU3O2AD0-BS01FVecg-55" style="edgeStyle=orthogonalEdgeStyle;rounded=0;orthogonalLoop=1;jettySize=auto;html=1;entryX=0.5;entryY=0;entryDx=0;entryDy=0;" edge="1" parent="1" source="1jdU3O2AD0-BS01FVecg-53" target="1jdU3O2AD0-BS01FVecg-43">
          <mxGeometry relative="1" as="geometry" />
        </mxCell>
        <mxCell id="1jdU3O2AD0-BS01FVecg-53" value="tamano" style="shape=parallelogram;perimeter=parallelogramPerimeter;whiteSpace=wrap;html=1;fixedSize=1;" vertex="1" parent="1">
          <mxGeometry x="365.5" y="1470" width="120" height="60" as="geometry" />
        </mxCell>
        <mxCell id="1jdU3O2AD0-BS01FVecg-60" value="" style="edgeStyle=orthogonalEdgeStyle;rounded=0;orthogonalLoop=1;jettySize=auto;html=1;" edge="1" parent="1" source="1jdU3O2AD0-BS01FVecg-57" target="1jdU3O2AD0-BS01FVecg-59">
          <mxGeometry relative="1" as="geometry" />
        </mxCell>
        <mxCell id="1jdU3O2AD0-BS01FVecg-57" value="dato = (rand() % 100) +1" style="whiteSpace=wrap;html=1;" vertex="1" parent="1">
          <mxGeometry x="349.5" y="1760" width="147" height="60" as="geometry" />
        </mxCell>
        <mxCell id="1jdU3O2AD0-BS01FVecg-58" value="" style="edgeStyle=orthogonalEdgeStyle;rounded=0;orthogonalLoop=1;jettySize=auto;html=1;" edge="1" parent="1" source="1jdU3O2AD0-BS01FVecg-50" target="1jdU3O2AD0-BS01FVecg-57">
          <mxGeometry relative="1" as="geometry" />
        </mxCell>
        <mxCell id="1jdU3O2AD0-BS01FVecg-61" style="edgeStyle=orthogonalEdgeStyle;rounded=0;orthogonalLoop=1;jettySize=auto;html=1;entryX=0;entryY=0.5;entryDx=0;entryDy=0;" edge="1" parent="1" source="1jdU3O2AD0-BS01FVecg-59" target="1jdU3O2AD0-BS01FVecg-45">
          <mxGeometry relative="1" as="geometry">
            <Array as="points">
              <mxPoint x="319" y="1880" />
              <mxPoint x="319" y="1690" />
            </Array>
          </mxGeometry>
        </mxCell>
        <mxCell id="1jdU3O2AD0-BS01FVecg-59" value="lista_s_insertar_fin(lista, dato)" style="whiteSpace=wrap;html=1;" vertex="1" parent="1">
          <mxGeometry x="339.5" y="1850" width="167" height="60" as="geometry" />
        </mxCell>
        <mxCell id="1jdU3O2AD0-BS01FVecg-65" value="" style="edgeStyle=orthogonalEdgeStyle;rounded=0;orthogonalLoop=1;jettySize=auto;html=1;" edge="1" parent="1" source="1jdU3O2AD0-BS01FVecg-63" target="1jdU3O2AD0-BS01FVecg-64">
          <mxGeometry relative="1" as="geometry" />
        </mxCell>
        <mxCell id="1jdU3O2AD0-BS01FVecg-63" value="lista creada" style="shape=parallelogram;perimeter=parallelogramPerimeter;whiteSpace=wrap;html=1;fixedSize=1;" vertex="1" parent="1">
          <mxGeometry x="363" y="1940" width="120" height="60" as="geometry" />
        </mxCell>
        <mxCell id="1jdU3O2AD0-BS01FVecg-62" style="edgeStyle=orthogonalEdgeStyle;rounded=0;orthogonalLoop=1;jettySize=auto;html=1;exitX=1;exitY=0.5;exitDx=0;exitDy=0;" edge="1" parent="1" source="1jdU3O2AD0-BS01FVecg-45" target="1jdU3O2AD0-BS01FVecg-63">
          <mxGeometry relative="1" as="geometry">
            <mxPoint x="410" y="1950" as="targetPoint" />
            <Array as="points">
              <mxPoint x="540" y="1690" />
              <mxPoint x="540" y="1970" />
            </Array>
          </mxGeometry>
        </mxCell>
        <mxCell id="1jdU3O2AD0-BS01FVecg-67" style="edgeStyle=orthogonalEdgeStyle;rounded=0;orthogonalLoop=1;jettySize=auto;html=1;entryX=0.5;entryY=0;entryDx=0;entryDy=0;" edge="1" parent="1" source="1jdU3O2AD0-BS01FVecg-64" target="1jdU3O2AD0-BS01FVecg-66">
          <mxGeometry relative="1" as="geometry" />
        </mxCell>
        <mxCell id="1jdU3O2AD0-BS01FVecg-64" value="aux = 1" style="rounded=1;whiteSpace=wrap;html=1;" vertex="1" parent="1">
          <mxGeometry x="363" y="2030" width="120" height="60" as="geometry" />
        </mxCell>
        <mxCell id="1jdU3O2AD0-BS01FVecg-66" value="Break" style="rounded=1;whiteSpace=wrap;html=1;" vertex="1" parent="1">
          <mxGeometry x="363" y="2120" width="120" height="60" as="geometry" />
        </mxCell>
        <mxCell id="1jdU3O2AD0-BS01FVecg-77" style="edgeStyle=orthogonalEdgeStyle;rounded=0;orthogonalLoop=1;jettySize=auto;html=1;" edge="1" parent="1" source="1jdU3O2AD0-BS01FVecg-72" target="1jdU3O2AD0-BS01FVecg-76">
          <mxGeometry relative="1" as="geometry" />
        </mxCell>
        <mxCell id="1jdU3O2AD0-BS01FVecg-72" value="2" style="ellipse;whiteSpace=wrap;html=1;aspect=fixed;" vertex="1" parent="1">
          <mxGeometry x="383" y="2230" width="80" height="80" as="geometry" />
        </mxCell>
        <mxCell id="1jdU3O2AD0-BS01FVecg-79" style="edgeStyle=orthogonalEdgeStyle;rounded=0;orthogonalLoop=1;jettySize=auto;html=1;" edge="1" parent="1" source="1jdU3O2AD0-BS01FVecg-76" target="1jdU3O2AD0-BS01FVecg-78">
          <mxGeometry relative="1" as="geometry" />
        </mxCell>
        <mxCell id="1jdU3O2AD0-BS01FVecg-84" style="edgeStyle=orthogonalEdgeStyle;rounded=0;orthogonalLoop=1;jettySize=auto;html=1;entryX=1;entryY=0.5;entryDx=0;entryDy=0;" edge="1" parent="1" source="1jdU3O2AD0-BS01FVecg-76" target="1jdU3O2AD0-BS01FVecg-83">
          <mxGeometry relative="1" as="geometry">
            <Array as="points">
              <mxPoint x="505" y="2370" />
              <mxPoint x="505" y="2660" />
            </Array>
          </mxGeometry>
        </mxCell>
        <mxCell id="1jdU3O2AD0-BS01FVecg-76" value="limpiar_pantalla()" style="rounded=1;whiteSpace=wrap;html=1;" vertex="1" parent="1">
          <mxGeometry x="363" y="2340" width="120" height="60" as="geometry" />
        </mxCell>
        <mxCell id="1jdU3O2AD0-BS01FVecg-81" value="" style="edgeStyle=orthogonalEdgeStyle;rounded=0;orthogonalLoop=1;jettySize=auto;html=1;" edge="1" parent="1" source="1jdU3O2AD0-BS01FVecg-78" target="1jdU3O2AD0-BS01FVecg-80">
          <mxGeometry relative="1" as="geometry" />
        </mxCell>
        <mxCell id="1jdU3O2AD0-BS01FVecg-78" value="aux == 0" style="rhombus;whiteSpace=wrap;html=1;" vertex="1" parent="1">
          <mxGeometry x="383" y="2430" width="80" height="80" as="geometry" />
        </mxCell>
        <mxCell id="1jdU3O2AD0-BS01FVecg-80" value="lista = lista_s_crear()" style="whiteSpace=wrap;html=1;" vertex="1" parent="1">
          <mxGeometry x="363" y="2540" width="120" height="60" as="geometry" />
        </mxCell>
        <mxCell id="1jdU3O2AD0-BS01FVecg-82" value="True" style="text;html=1;align=center;verticalAlign=middle;whiteSpace=wrap;rounded=0;" vertex="1" parent="1">
          <mxGeometry x="363" y="2490" width="60" height="30" as="geometry" />
        </mxCell>
        <mxCell id="1jdU3O2AD0-BS01FVecg-87" value="" style="edgeStyle=orthogonalEdgeStyle;rounded=0;orthogonalLoop=1;jettySize=auto;html=1;" edge="1" parent="1" source="1jdU3O2AD0-BS01FVecg-83" target="1jdU3O2AD0-BS01FVecg-86">
          <mxGeometry relative="1" as="geometry" />
        </mxCell>
        <mxCell id="1jdU3O2AD0-BS01FVecg-83" value="mostrar_lista(lista)" style="rounded=1;whiteSpace=wrap;html=1;" vertex="1" parent="1">
          <mxGeometry x="365" y="2630" width="120" height="60" as="geometry" />
        </mxCell>
        <mxCell id="1jdU3O2AD0-BS01FVecg-85" value="False" style="text;html=1;align=center;verticalAlign=middle;whiteSpace=wrap;rounded=0;" vertex="1" parent="1">
          <mxGeometry x="473" y="2340" width="60" height="30" as="geometry" />
        </mxCell>
        <mxCell id="1jdU3O2AD0-BS01FVecg-86" value="break" style="whiteSpace=wrap;html=1;rounded=1;" vertex="1" parent="1">
          <mxGeometry x="365" y="2720" width="120" height="60" as="geometry" />
        </mxCell>
        <mxCell id="1jdU3O2AD0-BS01FVecg-90" style="edgeStyle=orthogonalEdgeStyle;rounded=0;orthogonalLoop=1;jettySize=auto;html=1;" edge="1" parent="1" source="1jdU3O2AD0-BS01FVecg-88" target="1jdU3O2AD0-BS01FVecg-89">
          <mxGeometry relative="1" as="geometry" />
        </mxCell>
        <mxCell id="1jdU3O2AD0-BS01FVecg-88" value="3" style="ellipse;whiteSpace=wrap;html=1;aspect=fixed;" vertex="1" parent="1">
          <mxGeometry x="385" y="2810" width="80" height="80" as="geometry" />
        </mxCell>
        <mxCell id="1jdU3O2AD0-BS01FVecg-92" style="edgeStyle=orthogonalEdgeStyle;rounded=0;orthogonalLoop=1;jettySize=auto;html=1;" edge="1" parent="1" source="1jdU3O2AD0-BS01FVecg-89" target="1jdU3O2AD0-BS01FVecg-91">
          <mxGeometry relative="1" as="geometry" />
        </mxCell>
        <mxCell id="1jdU3O2AD0-BS01FVecg-89" value="limpiar_pantalla()" style="rounded=1;whiteSpace=wrap;html=1;" vertex="1" parent="1">
          <mxGeometry x="365.5" y="2920" width="120" height="60" as="geometry" />
        </mxCell>
        <mxCell id="1jdU3O2AD0-BS01FVecg-107" style="edgeStyle=orthogonalEdgeStyle;rounded=0;orthogonalLoop=1;jettySize=auto;html=1;" edge="1" parent="1" source="1jdU3O2AD0-BS01FVecg-91" target="1jdU3O2AD0-BS01FVecg-94">
          <mxGeometry relative="1" as="geometry" />
        </mxCell>
        <mxCell id="1jdU3O2AD0-BS01FVecg-91" value="mostrar_lista(lista)" style="rounded=1;whiteSpace=wrap;html=1;" vertex="1" parent="1">
          <mxGeometry x="365" y="3010" width="120" height="60" as="geometry" />
        </mxCell>
        <mxCell id="1jdU3O2AD0-BS01FVecg-97" value="" style="edgeStyle=orthogonalEdgeStyle;rounded=0;orthogonalLoop=1;jettySize=auto;html=1;" edge="1" parent="1" source="1jdU3O2AD0-BS01FVecg-94" target="1jdU3O2AD0-BS01FVecg-96">
          <mxGeometry relative="1" as="geometry" />
        </mxCell>
        <mxCell id="1jdU3O2AD0-BS01FVecg-94" value="Introduzca un numero" style="shape=parallelogram;perimeter=parallelogramPerimeter;whiteSpace=wrap;html=1;fixedSize=1;" vertex="1" parent="1">
          <mxGeometry x="343" y="3130" width="165" height="60" as="geometry" />
        </mxCell>
        <mxCell id="1jdU3O2AD0-BS01FVecg-103" style="edgeStyle=orthogonalEdgeStyle;rounded=0;orthogonalLoop=1;jettySize=auto;html=1;" edge="1" parent="1" source="1jdU3O2AD0-BS01FVecg-96" target="1jdU3O2AD0-BS01FVecg-100">
          <mxGeometry relative="1" as="geometry" />
        </mxCell>
        <mxCell id="1jdU3O2AD0-BS01FVecg-96" value="num" style="shape=parallelogram;perimeter=parallelogramPerimeter;whiteSpace=wrap;html=1;fixedSize=1;" vertex="1" parent="1">
          <mxGeometry x="343" y="3370" width="165" height="60" as="geometry" />
        </mxCell>
        <mxCell id="1jdU3O2AD0-BS01FVecg-105" style="edgeStyle=orthogonalEdgeStyle;rounded=0;orthogonalLoop=1;jettySize=auto;html=1;" edge="1" parent="1" source="1jdU3O2AD0-BS01FVecg-100" target="1jdU3O2AD0-BS01FVecg-104">
          <mxGeometry relative="1" as="geometry" />
        </mxCell>
        <mxCell id="1jdU3O2AD0-BS01FVecg-100" value="eliminar_nodos_mayores(lista, num)" style="rounded=1;whiteSpace=wrap;html=1;" vertex="1" parent="1">
          <mxGeometry x="315" y="3480" width="220" height="60" as="geometry" />
        </mxCell>
        <mxCell id="1jdU3O2AD0-BS01FVecg-108" style="edgeStyle=orthogonalEdgeStyle;rounded=0;orthogonalLoop=1;jettySize=auto;html=1;" edge="1" parent="1" source="1jdU3O2AD0-BS01FVecg-104" target="1jdU3O2AD0-BS01FVecg-106">
          <mxGeometry relative="1" as="geometry" />
        </mxCell>
        <mxCell id="1jdU3O2AD0-BS01FVecg-104" value="mostrar_lista(lista)" style="rounded=1;whiteSpace=wrap;html=1;" vertex="1" parent="1">
          <mxGeometry x="365" y="3580" width="120" height="60" as="geometry" />
        </mxCell>
        <mxCell id="1jdU3O2AD0-BS01FVecg-110" style="edgeStyle=orthogonalEdgeStyle;rounded=0;orthogonalLoop=1;jettySize=auto;html=1;" edge="1" parent="1" source="1jdU3O2AD0-BS01FVecg-106" target="1jdU3O2AD0-BS01FVecg-109">
          <mxGeometry relative="1" as="geometry" />
        </mxCell>
        <mxCell id="1jdU3O2AD0-BS01FVecg-106" value="(1 para regresar al menu)" style="shape=parallelogram;perimeter=parallelogramPerimeter;whiteSpace=wrap;html=1;fixedSize=1;" vertex="1" parent="1">
          <mxGeometry x="330.5" y="3690" width="190" height="60" as="geometry" />
        </mxCell>
        <mxCell id="1jdU3O2AD0-BS01FVecg-112" style="edgeStyle=orthogonalEdgeStyle;rounded=0;orthogonalLoop=1;jettySize=auto;html=1;" edge="1" parent="1" source="1jdU3O2AD0-BS01FVecg-109" target="1jdU3O2AD0-BS01FVecg-111">
          <mxGeometry relative="1" as="geometry" />
        </mxCell>
        <mxCell id="1jdU3O2AD0-BS01FVecg-109" value="op2" style="shape=parallelogram;perimeter=parallelogramPerimeter;whiteSpace=wrap;html=1;fixedSize=1;" vertex="1" parent="1">
          <mxGeometry x="366" y="3800" width="120" height="60" as="geometry" />
        </mxCell>
        <mxCell id="1jdU3O2AD0-BS01FVecg-111" value="Break" style="rounded=1;whiteSpace=wrap;html=1;" vertex="1" parent="1">
          <mxGeometry x="366" y="3900" width="120" height="60" as="geometry" />
        </mxCell>
        <mxCell id="1jdU3O2AD0-BS01FVecg-115" style="edgeStyle=orthogonalEdgeStyle;rounded=0;orthogonalLoop=1;jettySize=auto;html=1;" edge="1" parent="1" source="1jdU3O2AD0-BS01FVecg-113" target="1jdU3O2AD0-BS01FVecg-114">
          <mxGeometry relative="1" as="geometry" />
        </mxCell>
        <mxCell id="1jdU3O2AD0-BS01FVecg-113" value="4" style="ellipse;whiteSpace=wrap;html=1;aspect=fixed;" vertex="1" parent="1">
          <mxGeometry x="370" y="4000" width="80" height="80" as="geometry" />
        </mxCell>
        <mxCell id="1jdU3O2AD0-BS01FVecg-117" value="" style="edgeStyle=orthogonalEdgeStyle;rounded=0;orthogonalLoop=1;jettySize=auto;html=1;" edge="1" parent="1" source="1jdU3O2AD0-BS01FVecg-114" target="1jdU3O2AD0-BS01FVecg-116">
          <mxGeometry relative="1" as="geometry" />
        </mxCell>
        <mxCell id="1jdU3O2AD0-BS01FVecg-114" value="lista_s_destruir(lista)" style="rounded=1;whiteSpace=wrap;html=1;" vertex="1" parent="1">
          <mxGeometry x="350" y="4120" width="120" height="60" as="geometry" />
        </mxCell>
        <mxCell id="1jdU3O2AD0-BS01FVecg-116" value="break" style="whiteSpace=wrap;html=1;rounded=1;" vertex="1" parent="1">
          <mxGeometry x="350" y="4220" width="120" height="60" as="geometry" />
        </mxCell>
      </root>
    </mxGraphModel>
  </diagram>
</mxfile>
